<?xml version="1.0" encoding="UTF-8"?>
<svg version="1.1" xmlns="http://www.w3.org/2000/svg" width="512" height="512">
<path d="M0 0 C0.80798035 0.18955261 1.61596069 0.37910522 2.44842529 0.57440186 C24.96116572 5.9171913 44.83183085 13.92449124 57.9375 34.1875 C63.48256283 43.62073438 66.75244751 53.51110849 66.74804783 64.50152397 C66.75003888 65.60377308 66.75202993 66.70602218 66.75408131 67.84167278 C66.75116847 69.04206255 66.74825563 70.24245231 66.74525452 71.47921753 C66.74653615 73.40413519 66.74653615 73.40413519 66.74784368 75.36794007 C66.7500769 78.9230879 66.74608341 82.47820553 66.74106562 86.03334951 C66.73674447 89.8696807 66.73820873 93.7060102 66.7389679 97.54234314 C66.73949207 104.18680092 66.73635634 110.83124888 66.73073006 117.47570419 C66.72260071 127.0824539 66.71999836 136.68919885 66.71874207 146.29595162 C66.71655381 161.88252513 66.70989983 177.4690934 66.70043945 193.05566406 C66.6912595 208.19596328 66.68418151 223.33626107 66.67993164 238.4765625 C66.67966892 239.40991577 66.67940619 240.34326905 66.67913551 241.30490576 C66.67783047 245.98729624 66.67656676 250.66968674 66.67532361 255.35207725 C66.66495803 294.19305516 66.64734584 333.03402724 66.625 371.875 C67.31202499 372.00745621 67.99904999 372.13991241 68.70689392 372.27638245 C69.60791336 372.45273727 70.5089328 372.6290921 71.43725586 372.81079102 C72.33053085 372.98449722 73.22380585 373.15820343 74.14414978 373.33717346 C76.92231508 373.9394553 79.51166354 374.86063757 82.1875 375.8125 C89.3811255 377.72330677 95.239067 375.43345844 102.03515625 373.07421875 C105.625 371.875 105.625 371.875 108.625 371.875 C108.62386084 371.21763786 108.62272168 370.56027572 108.621548 369.88299352 C108.55436583 330.89394148 108.50291611 291.90489692 108.47180401 252.91579868 C108.46805204 248.23089369 108.46416906 243.54598881 108.46020508 238.86108398 C108.45941815 237.9284316 108.45863122 236.99577921 108.45782044 236.03486463 C108.44477822 220.9475227 108.4211309 205.86021518 108.39354161 190.77289364 C108.36545446 175.28375304 108.34881674 159.79463042 108.34273452 144.3054654 C108.33862494 134.75328155 108.32566054 125.20119498 108.3012506 115.64904108 C108.28535253 109.09247441 108.28060883 102.53595778 108.28449587 95.97937325 C108.2864111 92.20057388 108.28354348 88.42194409 108.26738358 84.64317513 C108.24994723 80.53567373 108.25606996 76.42852941 108.26423645 72.32099915 C108.25549793 71.14099927 108.2467594 69.96099939 108.23775607 68.74524194 C108.33286316 50.97282309 114.06221341 36.01900978 125.82421875 22.6328125 C130.57219351 17.95767975 135.78958617 14.10992294 141.625 10.875 C142.32729736 10.48006348 143.02959473 10.08512695 143.75317383 9.67822266 C153.0794605 4.94120684 163.28095555 3.24164906 173.4375 1.125 C175.31208924 0.72377725 177.18644061 0.32144147 179.06054688 -0.08203125 C199.25704236 -4.40477299 217.6211108 -6.84171986 235.94921875 4.9140625 C248.09755406 13.81693013 255.69767616 26.15348694 258.625 40.875 C259.02390105 45.5476193 259.01807901 50.19032799 258.98576355 54.87773132 C258.98707433 56.26491005 258.98970576 57.65208804 258.99353105 59.03926212 C259.00019446 62.8226318 258.98830108 66.60574354 258.97319686 70.38908041 C258.96018043 74.47958598 258.96462991 78.57007828 258.96690369 82.66059875 C258.96847289 89.73825687 258.95910069 96.81583169 258.94219017 103.89346886 C258.91775674 114.12639359 258.90999046 124.35927825 258.9062262 134.59222899 C258.89966852 151.19651856 258.87972592 167.80076379 258.85131836 184.4050293 C258.82376008 200.52970153 258.80253516 216.65436169 258.78979492 232.77905273 C258.78900675 233.7738193 258.78821858 234.76858586 258.78740653 235.79349687 C258.78349127 240.78419961 258.77970018 245.77490244 258.77597082 250.76560533 C258.7448962 292.13543439 258.69207904 333.50521465 258.625 374.875 C236.88174192 381.17083326 215.13308691 387.44769168 193.37786961 393.70208073 C183.27639812 396.60662145 173.1767771 399.51731671 163.08129883 402.44262695 C154.28085571 404.99266506 145.4771443 407.53103084 136.66933292 410.05550665 C132.0068739 411.39228886 127.34624492 412.73480888 122.68948555 414.09132576 C118.30316202 415.36886489 113.91262235 416.6307075 109.51841164 417.88083839 C107.90957476 418.34148578 106.30233706 418.80776286 104.69691849 419.2801857 C89.09361771 423.86513335 89.09361771 423.86513335 81.625 421.875 C80.50234962 421.59123977 79.37969923 421.30747953 78.22302914 421.01512051 C73.94630838 419.89905692 69.70309583 418.67277332 65.45678711 417.44702148 C63.83004166 416.9832039 62.20311393 416.52002519 60.57601929 416.05743408 C56.1801962 414.80573746 51.7869634 413.5451658 47.39415431 412.28293872 C42.79522352 410.96313727 38.19394363 409.65157711 33.59291077 408.33912659 C24.88984112 405.85521877 16.18889743 403.36394766 7.48870045 400.86999899 C-2.4202037 398.02995947 -12.33146066 395.19817493 -22.24292004 392.36706817 C-42.62290418 386.54553538 -62.99992373 380.7136851 -83.375 374.875 C-83.44368847 332.51262619 -83.49654015 290.15025882 -83.52819599 247.78784035 C-83.53194804 242.78491105 -83.53583102 237.78198187 -83.53979492 232.77905273 C-83.54058185 231.78307282 -83.54136878 230.7870929 -83.54217956 229.76093177 C-83.55522828 213.64082894 -83.57887919 197.52075825 -83.60645839 181.40067448 C-83.63452743 164.85611182 -83.65117943 148.31156597 -83.65726548 131.76698047 C-83.66137881 121.560682 -83.67436367 111.35447439 -83.6987494 101.14820389 C-83.71462508 94.14639416 -83.7193962 87.1446313 -83.71550413 80.14280488 C-83.71358544 76.10502355 -83.71649651 72.06740085 -83.73261642 68.02964783 C-83.74728795 64.32752566 -83.74790574 60.62566777 -83.73769668 56.92353306 C-83.73584246 54.9612441 -83.74871601 52.99895794 -83.76224393 51.03671473 C-83.68343005 35.39629915 -78.78722256 21.55180731 -67.859375 10.12890625 C-47.76494683 -8.10141617 -24.51156834 -5.84243451 0 0 Z " fill="#20B0E7" transform="translate(168.375,4.125)"/>
<path d="M0 0 C13.11207471 2.18534578 23.64289905 10.85372885 31.58203125 21.26171875 C41.04360623 34.67431858 43.76552341 48.63267591 43.60127258 64.65405273 C43.60345909 66.26828845 43.60784818 67.88252239 43.61421841 69.49674702 C43.625288 73.88464151 43.60555366 78.27191451 43.58032811 82.65972996 C43.55858036 87.40932093 43.56605357 92.15888149 43.56983948 96.9085083 C43.57245148 105.1216552 43.55686653 113.33460232 43.52865028 121.54769897 C43.487882 133.42218104 43.47497946 145.29656725 43.46871033 157.1711117 C43.45778799 176.44030099 43.42456988 195.70938399 43.37719727 214.97851562 C43.33124822 233.68814566 43.2958825 252.39774675 43.2746582 271.10742188 C43.27334459 272.26217258 43.27203097 273.41692329 43.27067754 274.60666645 C43.26415199 280.40015576 43.25783354 286.19364528 43.25161803 291.98713493 C43.19984924 339.99149672 43.11184028 387.99574315 43 436 C37.53887288 438.11408421 32.08462757 439.93566615 26.45292664 441.53334045 C25.62957425 441.76977766 24.80622187 442.00621487 23.95791942 442.24981683 C21.2185133 443.035621 18.47779946 443.81675865 15.73706055 444.59790039 C13.76305728 445.16310992 11.7891367 445.72860827 9.81529236 446.29437256 C4.45905248 447.82874811 -0.8983363 449.35907605 -6.25593972 450.8886826 C-11.89901593 452.50054167 -17.54102405 454.1161308 -23.18315125 455.73130798 C-33.90334913 458.79957709 -44.62450284 461.86449242 -55.3460018 464.92821163 C-67.40865836 468.37534792 -79.47024673 471.8262141 -91.53174269 475.27740872 C-105.23146597 479.19728183 -118.93129089 483.11680061 -132.63188881 487.03361577 C-134.7528416 487.64000484 -136.87375577 488.24652902 -138.99462992 488.8531931 C-144.06247027 490.30255781 -149.1309947 491.74942276 -154.20122242 493.19041538 C-162.41073239 495.5259131 -170.61576175 497.86913149 -178.78906447 500.32886869 C-181.99373508 501.29275627 -185.20211102 502.24396132 -188.41072881 503.19461334 C-190.5386247 503.83150466 -192.6595749 504.48835601 -194.78098774 505.14644718 C-211.13501125 510.08697708 -223.93507818 507.45788158 -239.83300781 502.77441406 C-241.796001 502.2110164 -243.75946569 501.64925941 -245.72335815 501.08900452 C-251.03171212 499.56967252 -256.33322271 498.02763273 -261.63378239 496.48136234 C-267.23429927 494.8519348 -272.84095461 493.24390354 -278.44696045 491.63348389 C-289.0964033 488.57079916 -299.74031403 485.48933305 -310.38232303 482.40092921 C-322.32986561 478.93455682 -334.28314394 475.48818932 -346.23710108 472.04401445 C-360.89110781 467.82176751 -375.54434511 463.59690166 -390.19268799 459.3550415 C-391.22767182 459.05536697 -392.26265564 458.75569243 -393.32900262 458.44693685 C-397.39703656 457.26898664 -401.46505838 456.09099558 -405.53282022 454.91210604 C-416.45781145 451.74623202 -427.38754579 448.59848177 -438.32946777 445.49157715 C-439.31944629 445.21017372 -440.30942482 444.92877029 -441.32940269 444.63883948 C-446.03755603 443.3007757 -450.74661263 441.96607831 -455.45747757 440.63759232 C-457.11367513 440.16776002 -458.76983941 439.69781038 -460.42596436 439.22772217 C-461.18478393 439.01515007 -461.94360351 438.80257796 -462.72541761 438.58356428 C-467.88650988 437.11349012 -467.88650988 437.11349012 -469 436 C-469.10042285 434.06601689 -469.12924414 432.12830833 -469.13142776 430.19172096 C-469.13526891 428.92159082 -469.13911005 427.65146068 -469.1430676 426.34284174 C-469.1422872 424.91489127 -469.14140839 423.48694084 -469.14044189 422.05899048 C-469.1430233 420.55628933 -469.14603582 419.05358887 -469.1494453 417.55088937 C-469.1575457 413.40140604 -469.15930656 409.25193996 -469.16004276 405.10244966 C-469.16188818 400.63458936 -469.16943315 396.16673814 -469.17617798 391.69888306 C-469.1897858 381.91752513 -469.1957905 372.13617129 -469.20018864 362.35480547 C-469.20294827 356.24814676 -469.20718524 350.14148964 -469.21169281 344.034832 C-469.22389122 327.1320156 -469.23418774 310.22920048 -469.2375679 293.32637978 C-469.23789725 291.70211466 -469.23789725 291.70211466 -469.23823325 290.0450361 C-469.23845153 288.95956329 -469.23866981 287.87409048 -469.2388947 286.75572455 C-469.23933817 284.55606246 -469.23978473 282.35640037 -469.24023438 280.15673828 C-469.2404558 279.06562419 -469.24067723 277.9745101 -469.24090537 276.85033195 C-469.24485025 259.18479084 -469.26229223 241.51929107 -469.2855939 223.85376592 C-469.30931675 205.72263053 -469.32177027 187.59151586 -469.32293582 169.4603647 C-469.32385233 159.27827798 -469.32959807 149.09624503 -469.34775543 138.91417313 C-469.36316936 130.23971512 -469.36826944 121.56532747 -469.36001733 112.89085837 C-469.35611472 108.46625346 -469.35702122 104.04179018 -469.37107468 99.61720276 C-469.38383766 95.56169099 -469.38259511 91.50642693 -469.37048396 87.45091538 C-469.36853104 85.98844193 -469.37158661 84.52595078 -469.38032833 83.06350215 C-469.48045269 65.17148989 -464.26492685 50.09135637 -452.4453125 36.46875 C-445.47275048 29.42935831 -437.29234017 24.40883025 -428 21 C-427.34 21 -426.68 21 -426 21 C-426 147.06 -426 273.12 -426 403 C-420.72 404.32 -415.44 405.64 -410 407 C-406.90366868 407.85586452 -403.82131968 408.72150301 -400.74267578 409.63391113 C-399.93991777 409.86883003 -399.13715977 410.10374892 -398.31007576 410.34578657 C-396.5871339 410.85037122 -394.86460258 411.3563596 -393.14246368 411.86367798 C-390.33683029 412.69015975 -387.53010181 413.51282954 -384.7230835 414.33459473 C-381.69173959 415.22203736 -378.66045508 416.10967642 -375.62948608 416.99839878 C-368.13137708 419.19656801 -360.62957414 421.38177486 -353.12548828 423.55944824 C-351.48283525 424.03614543 -351.48283525 424.03614543 -349.8069973 424.52247286 C-345.30015026 425.83003671 -340.79316157 427.13711126 -336.2860527 428.44377232 C-323.54034581 432.13927922 -310.7987266 435.84765773 -298.06835938 439.59570312 C-287.91582132 442.58470135 -277.75549755 445.54534023 -267.58514977 448.47318983 C-262.2174478 450.0195705 -256.85463238 451.57960965 -251.5010376 453.17420959 C-246.46748067 454.6731248 -241.42435315 456.13390674 -236.37171173 457.56712341 C-234.52959003 458.09669106 -232.69125855 458.63967394 -230.85753632 459.19763184 C-219.46219057 462.65475591 -211.40176991 463.62356404 -200.08385611 459.70109177 C-197.11911007 458.70363372 -194.11084941 457.89264907 -191.09485459 457.06584167 C-186.7937204 455.88288913 -182.51038032 454.63745623 -178.22314453 453.40527344 C-176.29308749 452.85272917 -174.3629605 452.30042915 -172.43276978 451.74835205 C-168.31175772 450.56912813 -164.19121848 449.38827162 -160.07104874 448.20610809 C-153.55910167 446.33777149 -147.04597972 444.47355411 -140.53268433 442.60992432 C-126.72922079 438.65976374 -112.92704964 434.70509746 -99.125 430.75 C-84.17327641 426.46548555 -69.22132773 422.18176571 -54.26791084 417.90316415 C-47.78820944 416.04896986 -41.30925308 414.1922008 -34.83085084 412.33347273 C-30.81710491 411.18244117 -26.80274206 410.03357339 -22.78820419 408.88530731 C-20.92142222 408.35086709 -19.05490254 407.81550978 -17.18865967 407.27919006 C-14.65104458 406.55006292 -12.11253203 405.82415013 -9.57376099 405.09906006 C-8.82787472 404.88389543 -8.08198845 404.66873081 -7.31349957 404.44704604 C-2.2281872 403 -2.2281872 403 0 403 C0 270.01 0 137.02 0 0 Z " fill="#21B0E7" transform="translate(469,4)"/>
</svg>
